# Blender 4.5.5 LTS
# www.blender.org
mtllib container.mtl
o Cube.001
v -1.400000 0.100000 3.000000
v -1.400000 2.900000 3.000000
v -1.500000 -0.000000 -3.000000
v -1.500000 3.000000 -3.000000
v 1.400000 0.100000 3.000000
v 1.400000 2.900000 3.000000
v 1.500000 -0.000000 -3.000000
v 1.500000 3.000000 -3.000000
v -1.500000 0.000000 3.000000
v -1.500000 3.000000 3.000000
v 1.500000 3.000000 3.000000
v 1.500000 0.000000 3.000000
v -1.400000 0.100000 3.000000
v -1.400000 2.900000 3.000000
v 1.400000 0.100000 3.000000
v 1.400000 2.900000 3.000000
v -1.400000 0.100000 -3.000000
v -1.400000 2.900000 -3.000000
v 1.400000 0.100000 -3.000000
v 1.400000 2.900000 -3.000000
v -1.400000 2.900000 2.900000
v -1.400000 2.900000 2.800000
v -1.400000 2.900000 -2.800000
v -1.400000 2.900000 -2.900000
v 1.400000 2.900000 -2.900000
v 1.400000 2.900000 -2.800000
v 1.400000 2.900000 2.800000
v 1.400000 2.900000 2.900000
v 1.400000 0.100000 -2.900000
v 1.400000 0.100000 -2.800000
v 1.400000 0.100000 2.800000
v 1.400000 0.100000 2.900000
v -1.400000 0.100000 -2.900000
v -1.400000 0.100000 -2.800000
v -1.400000 0.100000 2.800000
v -1.400000 0.100000 2.900000
v -1.300000 2.900000 2.900000
v -1.300000 2.900000 2.800000
v -1.300000 0.100000 2.800000
v -1.300000 0.100000 2.900000
v 1.300000 2.900000 2.800000
v 1.300000 2.900000 2.900000
v 1.300000 0.100000 2.800000
v 1.300000 0.100000 2.900000
v 1.300000 2.900000 -2.900000
v 1.300000 2.900000 -2.800000
v 1.300000 0.100000 -2.900000
v 1.300000 0.100000 -2.800000
v -1.300000 2.900000 -2.800000
v -1.300000 2.900000 -2.900000
v -1.300000 0.100000 -2.900000
v -1.300000 0.100000 -2.800000
vn -1.0000 -0.0000 -0.0000
vn 1.0000 -0.0000 -0.0000
vn -0.0000 1.0000 -0.0000
vn -0.0000 -0.0000 -1.0000
vn -0.0000 -1.0000 -0.0000
vn -0.0000 -0.0000 1.0000
vt 0.375000 0.000000
vt 0.625000 0.000000
vt 0.625000 0.250000
vt 0.375000 0.250000
vt 0.375000 0.500000
vt 0.625000 0.500000
vt 0.625000 0.750000
vt 0.375000 0.750000
vt 0.383333 0.991667
vt 0.383333 0.758333
vt 0.125000 0.500000
vt 0.125000 0.750000
vt 0.875000 0.500000
vt 0.875000 0.750000
vt 0.616667 0.991667
vt 0.625000 1.000000
vt 0.375000 1.000000
vt 0.616667 0.758333
s 1
f 9/1/1 10/2/1 4/3/1 3/4/1
f 7/5/2 8/6/2 11/7/2 12/8/2
s 0
f 1/9/3 5/10/4 15/10/3 13/9/4
s 1
f 3/11/5 7/5/5 12/8/5 9/12/5
f 8/6/3 4/13/3 10/14/3 11/7/3
f 1/9/6 2/15/6 10/16/6 9/17/6
f 6/18/6 5/10/6 12/8/6 11/7/6
f 5/10/6 1/9/6 9/17/6 12/8/6
f 2/15/6 6/18/6 11/7/6 10/16/6
f 25/18/5 24/15/5 18/15/5 20/18/5
s 0
f 2/15/3 1/9/4 13/9/3 14/15/4
f 6/18/3 2/15/4 14/15/3 16/18/4
f 5/10/3 6/18/4 16/18/3 15/10/4
s 1
f 4/13/4 8/6/4 20/18/4 18/15/4
f 29/10/1 25/18/1 20/18/1 19/10/1
f 33/9/3 29/10/3 19/10/3 17/9/3
f 24/15/2 33/9/2 17/9/2 18/15/2
f 4/13/4 18/15/4 17/9/4 3/4/4
f 7/5/4 3/4/4 17/9/4 19/10/4
f 7/5/4 19/10/4 20/18/4 8/6/4
f 14/15/2 13/9/2 36/9/2 21/15/2
f 21/15/6 36/9/6 40/9/6 37/15/6
f 22/15/2 35/9/2 34/9/2 23/15/2
f 33/9/4 24/15/4 50/15/4 51/9/4
f 13/9/3 15/10/3 32/10/3 36/9/3
f 36/9/3 32/10/3 31/10/3 35/9/3
f 35/9/3 31/10/3 30/10/3 34/9/3
f 34/9/3 30/10/3 29/10/3 33/9/3
f 15/10/1 16/18/1 28/18/1 32/10/1
f 32/10/6 28/18/6 42/18/6 44/10/6
f 31/10/1 27/18/1 26/18/1 30/10/1
f 30/10/6 26/18/6 46/18/6 48/10/6
f 16/18/5 14/15/5 21/15/5 28/18/5
f 28/18/5 21/15/5 22/15/5 27/18/5
f 27/18/5 22/15/5 23/15/5 26/18/5
f 26/18/5 23/15/5 24/15/5 25/18/5
f 37/15/2 40/9/2 39/9/2 38/15/2
f 22/15/3 21/15/3 37/15/3 38/15/3
f 35/9/4 22/15/4 38/15/4 39/9/4
f 36/9/5 35/9/5 39/9/5 40/9/5
f 44/10/1 42/18/1 41/18/1 43/10/1
f 31/10/5 32/10/5 44/10/5 43/10/5
f 28/18/3 27/18/3 41/18/3 42/18/3
f 27/18/4 31/10/4 43/10/4 41/18/4
f 48/10/1 46/18/1 45/18/1 47/10/1
f 29/10/5 30/10/5 48/10/5 47/10/5
f 26/18/3 25/18/3 45/18/3 46/18/3
f 25/18/4 29/10/4 47/10/4 45/18/4
f 49/15/2 52/9/2 51/9/2 50/15/2
f 34/9/5 33/9/5 51/9/5 52/9/5
f 23/15/6 34/9/6 52/9/6 49/15/6
f 24/15/3 23/15/3 49/15/3 50/15/3
